<?xml version="1.0" encoding="utf-8"?>
<!-- Generator: Adobe Illustrator 23.0.1, SVG Export Plug-In . SVG Version: 6.00 Build 0)  -->
<svg version="1.1" id="Layer_1" xmlns="http://www.w3.org/2000/svg" xmlns:xlink="http://www.w3.org/1999/xlink" x="0px" y="0px"
	 viewBox="0 0 330 330" style="enable-background:new 0 0 330 330;" xml:space="preserve">
<style type="text/css">
	.st0{fill:none;stroke:#000000;stroke-width:6;stroke-miterlimit:10;}
	.st1{fill:none;stroke:#000000;stroke-width:6;stroke-linecap:round;stroke-miterlimit:10;}
	.st2{fill:none;}
</style>
<path class="st0" d="M182.52,161.3c0-18.64-15.11-33.76-33.76-33.76c-14.73,0-27.25,9.44-31.86,22.59c-0.63-0.05-1.26-0.09-1.9-0.09
	c-12.43,0-22.5,10.08-22.5,22.5s10.08,22.5,22.5,22.5h67.51c9.32,0,16.88-7.56,16.88-16.88C199.4,168.85,191.84,161.3,182.52,161.3z
	"/>
<g>
	<path class="st1" d="M193.25,145.77c7.18-7.18,7.18-18.83,0-26.02c-7.18-7.18-18.83-7.18-26.02,0"/>
	<g>
		<line class="st1" x1="213.99" y1="132.76" x2="237.5" y2="132.76"/>
		<line class="st1" x1="204.1" y1="156.63" x2="220.73" y2="173.25"/>
		<line class="st1" x1="156.37" y1="108.89" x2="139.74" y2="92.27"/>
		<line class="st1" x1="180.24" y1="99.01" x2="180.24" y2="75.5"/>
		<line class="st1" x1="204.1" y1="108.89" x2="220.73" y2="92.27"/>
	</g>
</g>
<path class="st0" d="M168.29,248.56c-2.62,4.53-8.41,6.09-12.95,3.47c-4.53-2.62-6.09-8.41-3.47-12.95
	c2.62-4.53,17.68-11.68,17.68-11.68S170.91,244.03,168.29,248.56z"/>
<path class="st0" d="M139.67,229.48c-2.62,4.53-8.41,6.09-12.95,3.47c-4.53-2.62-6.09-8.41-3.47-12.95s17.68-11.68,17.68-11.68
	S142.29,224.95,139.67,229.48z"/>
<rect class="st2" width="330" height="330"/>
</svg>
