<?xml version="1.0" encoding="utf-8"?>
<!-- Generator: Adobe Illustrator 23.0.1, SVG Export Plug-In . SVG Version: 6.00 Build 0)  -->
<svg version="1.1" id="Layer_1" xmlns="http://www.w3.org/2000/svg" xmlns:xlink="http://www.w3.org/1999/xlink" x="0px" y="0px"
	 viewBox="0 0 330 330" style="enable-background:new 0 0 330 330;" xml:space="preserve">
<style type="text/css">
	.st0{fill:none;}
	.st1{fill:none;stroke:#000000;stroke-width:6;stroke-miterlimit:10;}
</style>
<rect class="st0" width="330" height="330"/>
<g>
	<path class="st1" d="M210.96,210.96c-13.72,13.72-45.42,4.27-70.81-21.12c-25.38-25.38-34.84-57.09-21.11-70.8"/>
	<path class="st1" d="M228.7,176.37c-11.21,11.21-37.1,3.48-57.83-17.25c-20.73-20.73-28.45-46.62-17.24-57.83"/>
	<path class="st1" d="M216.33,139.76c-1.89,14.58-11.78,32.83-27.76,48.81c-25.39,25.39-56.51,35.41-69.53,22.39"/>
	<path class="st1" d="M190.32,113.66c-14.59,1.87-32.88,11.77-48.89,27.77c-25.39,25.39-35.41,56.51-22.39,69.53"/>
	<path class="st1" d="M223.66,137.62c-4.67,4.67-15.46,1.45-24.09-7.19c-8.64-8.64-11.86-19.42-7.19-24.09"/>
	<path class="st1" d="M210.96,210.96c-25.39,25.39-66.54,25.39-91.92,0c-25.39-25.39-25.39-66.54,0-91.92
		c25.38-25.39,66.54-25.39,91.92,0C236.35,144.42,236.35,185.58,210.96,210.96z"/>
</g>
</svg>
